<svg width="32" height="32" viewBox="0 0 32 32" fill="none" xmlns="http://www.w3.org/2000/svg">
  <!-- Background circle with gradient -->
  <circle cx="16" cy="16" r="16" fill="url(#gradient)"/>

  <!-- Heart shape -->
  <path d="M16 24c-3-4-6-6-6-9 0-1.5 1.5-3 3-3s3 1.5 3 3c0-1.5 1.5-3 3-3s3 1.5 3 3c0 3-3 5-6 9z" fill="white" opacity="0.9"/>

  <!-- Brain waves -->
  <path d="M8 12c1-1 2-1 3-1" stroke="white" stroke-width="1.5" stroke-linecap="round" opacity="0.7"/>
  <path d="M21 12c1-1 2-1 3-1" stroke="white" stroke-width="1.5" stroke-linecap="round" opacity="0.7"/>
  <path d="M10 9c1-1 2-1 2-1" stroke="white" stroke-width="1.5" stroke-linecap="round" opacity="0.6"/>
  <path d="M20 9c1-1 2-1 2-1" stroke="white" stroke-width="1.5" stroke-linecap="round" opacity="0.6"/>

  <!-- Gradient definition -->
  <defs>
    <linearGradient id="gradient" x1="0%" y1="0%" x2="100%" y2="100%">
      <stop offset="0%" style="stop-color:#FF6B35;stop-opacity:1" />
      <stop offset="50%" style="stop-color:#F7931E;stop-opacity:1" />
      <stop offset="100%" style="stop-color:#FFC830;stop-opacity:1" />
    </linearGradient>
  </defs>
</svg>